{
  "accessors": [
    {
      "bufferView": 2,
      "componentType": 5126,
      "count": 4500,
      "max": [
        0.1301419585943222,
        0.473681777715683,
        0.5471605062484741
      ],
      "min": [
        -0.1301419585943222,
        -0.47368180751800537,
        2.9802322387695313e-08
      ],
      "type": "VEC3"
    },
    {
      "bufferView": 2,
      "byteOffset": 54000,
      "componentType": 5126,
      "count": 4500,
      "type": "VEC3"
    },
    {
      "bufferView": 3,
      "componentType": 5126,
      "count": 4500,
      "type": "VEC4"
    },
    {
      "bufferView": 1,
      "componentType": 5126,
      "count": 4500,
      "type": "VEC2"
    },
    {
      "bufferView": 1,
      "byteOffset": 36000,
      "componentType": 5126,
      "count": 4500,
      "type": "VEC2"
    },
    {
      "bufferView": 1,
      "byteOffset": 72000,
      "componentType": 5126,
      "count": 4500,
      "type": "VEC2"
    },
    {
      "bufferView": 0,
      "componentType": 5125,
      "count": 18000,
      "type": "SCALAR"
    }
  ],
  "asset": {
    "generator": "fab-model-conversion",
    "version": "2.0"
  },
  "bufferViews": [
    {
      "buffer": 0,
      "byteLength": 72000,
      "target": 34963
    },
    {
      "buffer": 0,
      "byteLength": 108000,
      "byteOffset": 72000,
      "byteStride": 8,
      "target": 34962
    },
    {
      "buffer": 0,
      "byteLength": 108000,
      "byteOffset": 180000,
      "byteStride": 12,
      "target": 34962
    },
    {
      "buffer": 0,
      "byteLength": 72000,
      "byteOffset": 288000,
      "byteStride": 16,
      "target": 34962
    }
  ],
  "buffers": [
    {
      "byteLength": 360000,
      "uri": "scene.bin"
    }
  ],
  "images": [
    {
      "uri": "textures/tripo_mat_f669ddd3-f5d4-44d3-a662-1b8c8881ae59_baseColor.jpeg"
    },
    {
      "uri": "textures/tripo_mat_f669ddd3-f5d4-44d3-a662-1b8c8881ae59_metallicRoughness.png"
    },
    {
      "uri": "textures/tripo_mat_f669ddd3-f5d4-44d3-a662-1b8c8881ae59_normal.jpeg"
    }
  ],
  "materials": [
    {
      "doubleSided": true,
      "name": "tripo_mat_f669ddd3-f5d4-44d3-a662-1b8c8881ae59",
      "normalTexture": {
        "index": 2
      },
      "pbrMetallicRoughness": {
        "baseColorTexture": {
          "index": 0
        },
        "metallicRoughnessTexture": {
          "index": 1
        }
      }
    }
  ],
  "meshes": [
    {
      "name": "tripo_node_f669ddd3-f5d4-44d3-a662-1b8c8881ae59_tripo_mat_f669ddd3-f5d4-44d3-a662-1b8c8881ae59_0",
      "primitives": [
        {
          "attributes": {
            "NORMAL": 1,
            "POSITION": 0,
            "TANGENT": 2,
            "TEXCOORD_0": 3,
            "TEXCOORD_1": 4,
            "TEXCOORD_2": 5
          },
          "indices": 6,
          "material": 0,
          "mode": 4
        }
      ]
    }
  ],
  "nodes": [
    {
      "children": [
        1
      ],
      "matrix": [
        1.0,
        0.0,
        0.0,
        0.0,
        0.0,
        2.220446049250313e-16,
        -1.0,
        0.0,
        0.0,
        1.0,
        2.220446049250313e-16,
        0.0,
        0.0,
        0.0,
        0.0,
        1.0
      ],
      "name": "Sketchfab_model"
    },
    {
      "children": [
        2
      ],
      "matrix": [
        0.009999999776482582,
        0.0,
        0.0,
        0.0,
        0.0,
        0.0,
        0.009999999776482582,
        0.0,
        0.0,
        -0.009999999776482582,
        0.0,
        0.0,
        0.0,
        0.0,
        0.0,
        1.0
      ],
      "name": "tripo_convert_f669ddd3-f5d4-44d3-a662-1b8c8881ae59.fbx"
    },
    {
      "children": [
        3
      ],
      "name": "RootNode"
    },
    {
      "children": [
        4
      ],
      "matrix": [
        100.0,
        0.0,
        0.0,
        0.0,
        0.0,
        -4.371139006309477e-06,
        -99.9999999999999,
        0.0,
        0.0,
        99.9999999999999,
        -4.371139006309477e-06,
        0.0,
        0.0,
        0.0,
        0.0,
        1.0
      ],
      "name": "tripo_node_f669ddd3-f5d4-44d3-a662-1b8c8881ae59"
    },
    {
      "mesh": 0,
      "name": "tripo_node_f669ddd3-f5d4-44d3-a662-1b8c8881ae59_tripo_mat_f669ddd3-f5d4-44d3-a662-1b8c8881ae59_0"
    }
  ],
  "samplers": [
    {
      "magFilter": 9729,
      "minFilter": 9987,
      "wrapS": 10497,
      "wrapT": 10497
    }
  ],
  "scene": 0,
  "scenes": [
    {
      "name": "Sketchfab_Scene",
      "nodes": [
        0
      ]
    }
  ],
  "textures": [
    {
      "sampler": 0,
      "source": 0
    },
    {
      "sampler": 0,
      "source": 1
    },
    {
      "sampler": 0,
      "source": 2
    }
  ]
}
